<svg aria-hidden="true" style="position: absolute; width: 0; height: 0; overflow: hidden;" version="1.1" xmlns="http://www.w3.org/2000/svg" xmlns:xlink="http://www.w3.org/1999/xlink">
<defs>
<symbol id="e-mentor" viewBox="0 0 189 32"><path   d="M5.164 17.997v8.483h13.916v4.937h-19.079v-31.417h18.855v4.937h-13.693v8.169h12.57v4.892h-12.569zM40.416 20.106h-16.611v-4.668h16.611v4.669zM71.247 0h5.523v31.417h-5.164v-22.396l-9.562 15.798h-0.628l-9.561-15.843v22.442h-5.164v-31.418h5.568l9.472 15.709 9.516-15.709zM104.404 22.26h-17.868c0.359 1.676 1.167 2.977 2.423 3.905 1.287 0.927 2.874 1.391 4.759 1.391 2.544 0 4.474-0.927 5.791-2.783l3.996 2.335c-2.185 3.261-5.462 4.892-9.831 4.892-3.622 0-6.569-1.107-8.844-3.321-2.244-2.244-3.367-5.072-3.367-8.483 0-3.321 1.107-6.119 3.322-8.393 2.185-2.273 5.028-3.411 8.529-3.411 3.263 0 5.956 1.152 8.081 3.456 2.124 2.304 3.187 5.101 3.187 8.393 0 0.598-0.060 1.271-0.179 2.019zM86.492 18.313h13.199c-0.33-1.766-1.076-3.127-2.244-4.084-1.137-0.957-2.529-1.436-4.175-1.436-1.796 0-3.293 0.495-4.49 1.481-1.197 0.988-1.961 2.333-2.289 4.039zM120.656 8.393c2.604 0 4.684 0.838 6.24 2.513 1.585 1.645 2.38 3.889 2.38 6.732v13.78h-4.848v-13.284c0-1.676-0.449-2.963-1.347-3.86s-2.125-1.347-3.68-1.347c-1.767 0-3.159 0.554-4.176 1.661-1.018 1.076-1.527 2.678-1.527 4.803v12.028h-4.848v-22.444h4.848v2.873c1.498-2.304 3.817-3.456 6.959-3.456zM147.021 8.976v4.669h-5.567v10.769c0 0.928 0.209 1.6 0.628 2.020 0.419 0.388 1.033 0.614 1.841 0.673 0.838 0.029 1.871 0.015 3.097-0.045v4.353c-3.711 0.448-6.374 0.134-7.99-0.943-1.617-1.107-2.425-3.127-2.425-6.060v-10.771h-4.131v-4.668h4.131v-4.845l4.848-1.437v6.284h5.567zM169.488 28.589c-2.275 2.273-5.073 3.411-8.396 3.411-3.321 0-6.119-1.137-8.394-3.411-2.304-2.304-3.457-5.101-3.457-8.393s1.153-6.089 3.457-8.393c2.275-2.273 5.073-3.411 8.394-3.411 3.322 0 6.121 1.137 8.396 3.411 2.304 2.304 3.457 5.101 3.457 8.393s-1.153 6.089-3.457 8.393zM154.090 20.196c0 2.035 0.673 3.725 2.020 5.072 1.347 1.345 3.007 2.019 4.982 2.019 1.977 0 3.636-0.673 4.983-2.019 1.347-1.347 2.020-3.037 2.020-5.072s-0.673-3.725-2.020-5.072c-1.347-1.345-3.007-2.019-4.983-2.019-1.975 0-3.635 0.673-4.982 2.019-1.347 1.347-2.020 3.037-2.020 5.072zM182.177 8.976v3.77c1.228-2.783 3.532-4.175 6.913-4.175v5.251c-1.825-0.119-3.441 0.33-4.848 1.347-1.377 0.988-2.065 2.633-2.065 4.937v11.312h-4.848v-22.444h4.848z"></path></symbol>
<symbol id="icon-facebook" viewBox="0 0 32 32">
<path   d="M16 32l0.015-0c-0.098 0.002-0.196 0.003-0.294 0.003-0.885 0-1.754-0.070-2.508-0.191v-0.052c-7.508-1.319-13.213-7.872-13.213-15.759 0-8.836 7.164-16 16-16s16 7.164 16 16c0 8.836-7.164 16-16 16zM15.86 32c0.839-0.007 1.657-0.075 2.456-0.201l-0.093 0.012v-10.918h3.737l0.71-4.516h-4.447v-2.929c0-1.236 0.621-2.441 2.612-2.441h2.022v-3.844s-1.834-0.305-3.588-0.305c-3.663 0-6.055 2.164-6.055 6.080v3.44h-4.070v4.516h4.070v10.865c0.861 0.151 1.745 0.233 2.647 0.241z"></path>
</symbol>
<symbol id="icon-inst" viewBox="0 0 32 32">
<path  d="M0.919 4.608l0.022-0.047c0.803-1.549 2.071-2.817 3.667-3.642 1.805-0.919 4.169-0.919 8.896-0.919h4.992c4.727 0 7.089 0 8.896 0.919l0.047 0.022c1.549 0.803 2.817 2.071 3.642 3.667 0.919 1.805 0.919 4.169 0.919 8.896v4.992c0 4.727 0 7.089-0.919 8.896l-0.022 0.047c-0.803 1.549-2.071 2.817-3.667 3.642-1.805 0.919-4.169 0.919-8.896 0.919h-4.992c-4.727 0-7.089 0-8.896-0.919l-0.047-0.022c-1.549-0.803-2.817-2.071-3.642-3.667-0.919-1.805-0.919-4.169-0.919-8.896v-4.992c0-4.727 0-7.089 0.919-8.896zM16 21.713c0.027 0 0.059 0.001 0.091 0.001 3.156 0 5.715-2.559 5.715-5.715s-2.559-5.715-5.715-5.715c-0.032 0-0.064 0-0.096 0.001l0.005-0c-3.156 0-5.715 2.559-5.715 5.715s2.559 5.715 5.715 5.715v0zM19.428 16v0c0-1.893-1.535-3.428-3.428-3.428s-3.428 1.535-3.428 3.428v0c0 1.893 1.535 3.428 3.428 3.428s3.428-1.535 3.428-3.428zM5.319 8.316c-0.748 1.466-0.748 3.386-0.748 7.228v0.913c0 3.84 0 5.76 0.748 7.229 0.67 1.296 1.7 2.326 2.958 2.978l0.038 0.018c1.466 0.746 3.386 0.746 7.228 0.746h0.913c3.84 0 5.76 0 7.229-0.748 1.296-0.67 2.326-1.7 2.978-2.958l0.018-0.038c0.746-1.466 0.746-3.388 0.746-7.228v-0.913c0-3.84 0-5.76-0.748-7.229-0.67-1.296-1.7-2.326-2.958-2.978l-0.038-0.018c-1.466-0.746-3.388-0.746-7.228-0.746h-0.913c-3.84 0-5.76 0-7.229 0.748-1.296 0.67-2.326 1.7-2.978 2.958l-0.018 0.038zM15.543 6.857h0.913c1.958 0 3.289 0.003 4.319 0.087 1.002 0.081 1.513 0.23 1.872 0.412 0.864 0.447 1.55 1.133 1.985 1.972l0.012 0.025c0.182 0.358 0.33 0.87 0.413 1.872 0.084 1.030 0.086 2.361 0.086 4.319v0.913c0 1.958-0.003 3.289-0.087 4.319-0.081 1.002-0.23 1.513-0.412 1.872-0.447 0.864-1.133 1.55-1.972 1.985l-0.025 0.012c-0.358 0.182-0.87 0.33-1.872 0.413-1.030 0.084-2.361 0.086-4.319 0.086h-0.913c-1.958 0-3.289-0.003-4.319-0.087-1.002-0.081-1.513-0.23-1.872-0.412-0.864-0.447-1.55-1.133-1.985-1.972l-0.012-0.025c-0.182-0.358-0.33-0.87-0.413-1.872-0.083-1.030-0.086-2.361-0.086-4.319v-0.913c0-1.958 0.003-3.289 0.087-4.319 0.081-1.002 0.23-1.513 0.412-1.872 0.447-0.864 1.133-1.55 1.972-1.985l0.025-0.012c0.358-0.182 0.87-0.33 1.872-0.413 1.030-0.083 2.361-0.086 4.319-0.086zM24 9.716l-0-0.003c-0.028-0.923-0.785-1.662-1.714-1.662s-1.686 0.74-1.714 1.665l0-0.003c-0.001 0.017-0.001 0.035-0.001 0.053 0 0.947 0.768 1.715 1.715 1.715s1.715-0.768 1.715-1.715c0-0.018-0-0.035-0.001-0.050z"></path>
</symbol>
<symbol id="icon-logo-one" viewBox="0 0 41 32">
<path fill="#fa9f42" style="fill: var(--color2, #fa9f42)" d="M0 13.473c0-7.441 6.079-13.473 13.575-13.473h27.152v1.684c0 7.441-6.079 13.473-13.575 13.473h-27.152v-1.684zM0 26.947c0-4.65 3.799-8.422 8.484-8.422h1.697c3.748 0 6.788 3.017 6.788 6.737s-3.040 6.737-6.788 6.737h-10.182v-5.053zM23.757 26.947c0-4.65 3.799-8.422 8.486-8.422h1.696c3.75 0 6.788 3.017 6.788 6.737s-3.040 6.737-6.788 6.737h-10.182v-5.053z"></path>
</symbol>
<symbol id="icon-wk" viewBox="0 0 32 32">
<path  d="M13.504 0c-4.727 0-7.089 0-8.896 0.919l-0.047 0.022c-1.549 0.803-2.817 2.071-3.642 3.667-0.919 1.805-0.919 4.169-0.919 8.896v4.992c0 4.727 0 7.089 0.919 8.896l0.022 0.047c0.803 1.549 2.071 2.817 3.667 3.642 1.805 0.919 4.169 0.919 8.896 0.919h4.992c4.727 0 7.089 0 8.896-0.919l0.047-0.022c1.549-0.803 2.817-2.071 3.642-3.667 0.919-1.805 0.919-4.169 0.919-8.896v-4.992c0-4.727 0-7.089-0.919-8.896l-0.022-0.047c-0.803-1.549-2.071-2.817-3.667-3.642-1.805-0.919-4.169-0.919-8.896-0.919h-4.992zM23.745 17.652c-0.134 0.343-0.080 0.681 0.167 1.015 0.314 0.352 0.66 0.711 1.012 1.073 1.039 1.072 2.111 2.177 2.444 3.261 0.116 0.675-0.441 0.927-1.007 0.927l-3.044 0.051c-0.066 0.012-0.141 0.019-0.218 0.019-0.161 0-0.315-0.030-0.456-0.084l0.009 0.003c-0.877-0.289-1.45-0.982-2.029-1.68-0.371-0.448-0.742-0.897-1.2-1.245-0.227-0.175-0.502-0.291-0.767-0.151-0.599 0.314-0.614 0.919-0.63 1.532-0.012 0.464-0.023 0.931-0.287 1.28-0.349 0.387-1.023 0.337-1.574 0.298-0.123-0.011-0.27-0.019-0.419-0.022l-0.006-0c-5.696 0.204-9.411-7.962-11.108-12.176-0.204-0.569 0.116-0.852 0.689-0.852l3.258-0.025c0.349 0.061 0.681 0.268 0.81 0.625 0.487 1.194 2.265 5.501 3.366 5.501s0.826-4.388 0.451-5.212c-0.198-0.284-0.534-0.464-1.009-0.538-0.103-0.017-0.084-0.116 0.058-0.301 0.5-0.643 3.561-0.833 4.902-0.513 0.265 0.070 0.524 0.195 0.641 0.47 0.268 0.628 0.207 1.687 0.145 2.756-0.079 1.328-0.157 2.676 0.39 3.251 0.211 0.054 0.326 0.061 0.511-0.087 1.408-1.42 2.368-3.628 3.153-5.437 0.074-0.234 0.267-0.409 0.506-0.457l0.004-0.001 1.386 0.004c1.014 0.004 2.092 0.009 3.039-0.004 1.466 0-0.655 3.007-2.084 5.033-0.557 0.79-1.009 1.431-1.104 1.687z"></path>
</symbol>
</defs>
</svg>
